<svg width="16" height="16" viewBox="0 0 16 16" fill="none" xmlns="http://www.w3.org/2000/svg">
<path d="M1.66675 7.99935C1.66675 5.01379 1.66675 3.52101 2.59424 2.59351C3.52174 1.66602 5.01452 1.66602 8.00008 1.66602C10.9856 1.66602 12.4784 1.66602 13.4059 2.59351C14.3334 3.52101 14.3334 5.01379 14.3334 7.99935C14.3334 10.9849 14.3334 12.4777 13.4059 13.4052C12.4784 14.3327 10.9856 14.3327 8.00008 14.3327C5.01452 14.3327 3.52174 14.3327 2.59424 13.4052C1.66675 12.4777 1.66675 10.9849 1.66675 7.99935Z" stroke="white"/>
<path d="M8.16154 11.334V8.00065C8.16154 7.68638 8.16154 7.52925 8.06387 7.43158C7.96627 7.33398 7.80914 7.33398 7.49487 7.33398" stroke="white" stroke-linecap="round" stroke-linejoin="round"/>
<path d="M7.99463 5.33398H8.00063" stroke="white" stroke-linecap="round" stroke-linejoin="round"/>
</svg>
