<svg width="18" height="18" viewBox="0 0 18 18" fill="none" xmlns="http://www.w3.org/2000/svg">
<path d="M12.4639 0C12.5058 0 12.5477 0 12.592 0C12.6947 1.2694 12.2102 2.21789 11.6213 2.90476C11.0435 3.58688 10.2523 4.24845 8.97267 4.14807C8.88731 2.89685 9.37262 2.01871 9.96068 1.33342C10.5061 0.69477 11.5059 0.126466 12.4639 0Z" fill="white"/>
<path d="M16.3378 13.2125C16.3378 13.2252 16.3378 13.2362 16.3378 13.2481C15.9782 14.3373 15.4652 15.2708 14.8392 16.137C14.2677 16.9235 13.5674 17.9819 12.317 17.9819C11.2365 17.9819 10.5188 17.2871 9.41147 17.2681C8.24008 17.2492 7.5959 17.8491 6.5249 18C6.40238 18 6.27987 18 6.15973 18C5.37327 17.8862 4.73857 17.2634 4.27618 16.7022C2.91272 15.0439 1.85911 12.9019 1.66309 10.1608C1.66309 9.89202 1.66309 9.62407 1.66309 9.35533C1.74608 7.39354 2.69931 5.79849 3.96634 5.02547C4.63503 4.61445 5.55427 4.2643 6.57785 4.4208C7.01653 4.48878 7.46469 4.63896 7.85753 4.78755C8.22981 4.93062 8.69536 5.18434 9.13641 5.1709C9.43518 5.16221 9.73238 5.0065 10.0335 4.89663C10.9156 4.5781 11.7803 4.21293 12.9201 4.38445C14.2899 4.59153 15.2621 5.20015 15.8628 6.13916C14.7041 6.87661 13.788 7.98792 13.9445 9.8857C14.0836 11.6096 15.0858 12.6181 16.3378 13.2125Z" fill="white"/>
</svg>
