<svg width="20" height="20" viewBox="0 0 20 20" fill="none" xmlns="http://www.w3.org/2000/svg">
<path d="M14.1923 10.4425L7.94229 16.6925C7.88422 16.7506 7.81528 16.7967 7.73941 16.8281C7.66354 16.8595 7.58223 16.8757 7.5001 16.8757C7.41798 16.8757 7.33666 16.8595 7.26079 16.8281C7.18492 16.7967 7.11598 16.7506 7.05792 16.6925C6.99985 16.6345 6.95378 16.5655 6.92236 16.4897C6.89093 16.4138 6.87476 16.3325 6.87476 16.2503C6.87476 16.1682 6.89093 16.0869 6.92236 16.011C6.95378 15.9352 6.99985 15.8662 7.05792 15.8082L12.8665 10.0003L7.05792 4.19253C6.94064 4.07526 6.87476 3.9162 6.87476 3.75035C6.87476 3.5845 6.94064 3.42544 7.05792 3.30816C7.17519 3.19088 7.33425 3.125 7.5001 3.125C7.66596 3.125 7.82502 3.19088 7.94229 3.30816L14.1923 9.55816C14.2504 9.61621 14.2965 9.68514 14.328 9.76101C14.3594 9.83688 14.3756 9.91821 14.3756 10.0003C14.3756 10.0825 14.3594 10.1638 14.328 10.2397C14.2965 10.3156 14.2504 10.3845 14.1923 10.4425Z" fill="#CACBCE"/>
</svg>
