<svg width="12" height="14" viewBox="0 0 12 14" fill="none" xmlns="http://www.w3.org/2000/svg">
<path d="M0.00666667 4.90269C-0.0333333 4.17433 0.166667 3.45897 0.566667 2.86068L0.666667 2.7111L0.673333 2.7046L0.746667 2.62656L0.82 2.54202L0.826667 2.52901C0.973333 2.38594 1.13333 2.25587 1.30667 2.15182L1.35333 2.11931L1.4 2.09329L1.51333 2.02826C1.56 2.00875 1.60667 1.98274 1.66 1.95673C1.69333 1.94372 1.72667 1.93071 1.76 1.91771C1.82 1.89169 1.88667 1.86568 1.96 1.84617C1.98667 1.83967 2.00667 1.82666 2.03333 1.82016L2.06 1.81365L2.08667 1.80065C2.4 1.7096 2.71333 1.64457 3.03333 1.61856H3V0.968233C3 0.708104 3.21333 0.5 3.48 0.5C3.74667 0.5 3.96 0.708104 3.96 0.968233V3.01025C3.96 3.27038 3.74667 3.47848 3.48 3.47848C3.21333 3.47848 3 3.27038 3 3.01025V2.54202C2.68667 2.57453 2.37333 2.65257 2.08 2.77613C1.32667 3.1078 0.966667 3.73861 0.926667 4.74011V4.90269V5.15632H11.0733V4.89619C11.0933 4.43446 11 3.97273 10.7933 3.55002C10.6 3.19234 10.2867 2.9192 9.91333 2.76963C9.67333 2.66558 9.42667 2.60055 9.16667 2.56153L9 2.54202V3.01675C9 3.27688 8.78667 3.48499 8.52 3.48499C8.25333 3.48499 8.04 3.27688 8.04 3.01675V2.503H3.96V1.57303H8.03333V0.968233C8.03333 0.714607 8.24667 0.5 8.50667 0.5C8.77333 0.5 8.98667 0.708104 8.99333 0.96173V1.61205C9.22667 1.63156 9.45333 1.67058 9.68667 1.72911L9.91333 1.80065C9.93333 1.80065 9.94667 1.80715 9.97333 1.82016C10 1.82666 10.02 1.83316 10.0467 1.84617C10.1133 1.86568 10.1733 1.89169 10.24 1.91771C10.28 1.93071 10.3133 1.95022 10.34 1.96323C10.3867 1.98274 10.44 2.00875 10.48 2.03476C10.52 2.05427 10.56 2.08029 10.5933 2.0998C10.64 2.1063 10.6667 2.12581 10.6933 2.14532C10.82 2.22336 10.9467 2.32091 11.06 2.41846L11.1733 2.52251L11.18 2.52901L11.26 2.60705L11.3333 2.69809V2.7046C11.7667 3.28339 12 3.99224 12 4.7141L11.9933 4.89619V5.14982H12V10.1898C12 12.3879 10.74 13.5 8.24667 13.5H3.74667C1.26 13.5065 0 12.3944 0 10.1963V5.15632H0.00666667V4.90269ZM8.74667 9.76711C8.43333 9.76711 8.19333 10.0142 8.19333 10.3199C8.2 10.6255 8.44667 10.8727 8.74667 10.8727C9.04667 10.8727 9.29333 10.6255 9.29333 10.3199C9.29333 10.0142 9.04667 9.76711 8.74667 9.76711ZM6 9.76061C5.69333 9.76711 5.44667 10.0142 5.44667 10.3199C5.44667 10.6255 5.7 10.8727 6 10.8727C6.30667 10.8727 6.54667 10.6255 6.54667 10.3134C6.54667 10.0142 6.30667 9.76711 6 9.76061ZM3.25333 9.76061C2.94667 9.76061 2.7 10.0142 2.70667 10.3199C2.70667 10.6255 2.95333 10.8727 3.25333 10.8727C3.56 10.8727 3.8 10.619 3.8 10.3134C3.80667 10.0077 3.56 9.76061 3.25333 9.76061ZM8.74667 7.40644C8.43333 7.40644 8.2 7.65356 8.2 7.95921C8.2 8.26487 8.44667 8.51199 8.74667 8.51199C9.04667 8.51199 9.29333 8.26487 9.29333 7.95921C9.29333 7.65356 9.04667 7.40644 8.74667 7.40644ZM6 7.39993C5.69333 7.40644 5.44667 7.65356 5.44667 7.95271C5.44667 8.25836 5.7 8.50549 6 8.50549C6.30667 8.50549 6.54667 8.25836 6.54667 7.94621C6.55333 7.65356 6.30667 7.40644 6 7.39993ZM3.26 7.39993C2.95333 7.39993 2.7 7.65356 2.7 7.95921C2.7 8.26487 2.94667 8.51199 3.24667 8.51199C3.56 8.51199 3.8 8.25836 3.79333 7.95271C3.80667 7.64706 3.56 7.39993 3.26 7.39993Z" fill="#E20101"/>
</svg>
