<svg width="30" height="30" viewBox="0 0 30 30" fill="none" xmlns="http://www.w3.org/2000/svg">
<path opacity="0.4" fill-rule="evenodd" clip-rule="evenodd" d="M11.1838 6.35186H18.8621V4.56409H11.1838V6.35186ZM9.43707 4.6375V4.6464C8.83768 4.70092 8.24473 4.81995 7.66786 4.99906V4.99239C7.65071 4.9996 7.63457 5.00515 7.61907 5.01048C7.59873 5.01747 7.57951 5.02408 7.56064 5.03355C7.51453 5.04468 7.4695 5.06136 7.42661 5.0825C7.30008 5.12366 7.17356 5.17261 7.05454 5.22267C7.02291 5.23491 6.99128 5.2491 6.95965 5.26328C6.92801 5.27746 6.89638 5.29165 6.86475 5.30389C6.82133 5.32447 6.77602 5.347 6.73072 5.36952C6.68542 5.39205 6.64012 5.41458 6.59669 5.43516L6.38224 5.55865C6.34259 5.57887 6.30589 5.60258 6.26844 5.62679C6.24614 5.6412 6.22357 5.65578 6.19996 5.6699C5.87721 5.87793 5.57806 6.12157 5.30785 6.39858L5.29177 6.41526C5.25628 6.45663 5.22094 6.49677 5.18608 6.53637C5.1272 6.60325 5.06968 6.66858 5.01513 6.73566L4.99905 6.75124C4.12195 7.96163 3.68233 9.45347 3.75846 10.9653V11.4448H5.49013V10.9609C5.49013 8.85384 6.16136 7.54222 7.655 6.87027C8.22543 6.62886 8.82803 6.47979 9.44136 6.42528H9.45744V4.64529L9.43707 4.6375ZM24.9975 6.72899L25.005 6.74456C25.881 7.95606 26.3185 9.44903 26.2413 10.9609V11.4448H24.5107V10.9487C24.5471 10.0564 24.3681 9.16868 23.9885 8.36657C23.6239 7.68017 23.0406 7.14728 22.3362 6.85804C21.7754 6.61663 21.1814 6.46644 20.5755 6.41304V4.64195C21.1749 4.69758 21.7679 4.8155 22.3458 4.99461V4.98571C22.3783 5.00045 22.4031 5.00921 22.4456 5.02424L22.453 5.02688C22.4728 5.03386 22.4912 5.04084 22.5094 5.04773C22.5347 5.05733 22.5596 5.06677 22.5871 5.07583C22.7056 5.11472 22.8165 5.16057 22.9306 5.20773L22.9506 5.216C23.0032 5.23449 23.0528 5.25742 23.0975 5.27808C23.1119 5.28477 23.1259 5.29122 23.1393 5.29721C23.2336 5.33837 23.3301 5.38732 23.4073 5.42849C23.4588 5.4552 23.509 5.4838 23.556 5.51061C23.5814 5.52511 23.606 5.53909 23.6293 5.55197C23.6677 5.57319 23.7011 5.59589 23.7332 5.61771C23.7567 5.63366 23.7795 5.64913 23.803 5.66322C24.1268 5.87237 24.4292 6.11712 24.7026 6.3919L24.7123 6.40859C24.813 6.50983 24.9085 6.61663 24.9975 6.72899Z" fill="#B5B5B5"/>
<path d="M20.625 3.39616V7.33558C20.625 7.83193 20.2222 8.23396 19.725 8.23396C19.2277 8.23396 18.825 7.83193 18.825 7.33558V3.40514C18.8205 2.90879 19.221 2.50339 19.7182 2.50002C20.2155 2.49665 20.6216 2.89531 20.625 3.39167V3.39616Z" fill="#B5B5B5"/>
<path d="M11.175 3.41049V7.34017C11.175 7.83868 10.7718 8.24287 10.2744 8.24287C9.77712 8.24287 9.375 7.83868 9.375 7.34017V3.41049C9.375 2.91198 9.77712 2.50891 10.2744 2.50891C10.7718 2.50891 11.175 2.91198 11.175 3.41049Z" fill="#B5B5B5"/>
<path fill-rule="evenodd" clip-rule="evenodd" d="M3.75 21.1376V11.4448H26.25V21.1376C26.25 25.3644 23.8895 27.4999 19.2114 27.4999H10.7779C6.11052 27.4999 3.75 25.3644 3.75 21.1376ZM8.82513 16.8334C8.82513 17.4198 9.2865 17.8956 9.85517 17.8956C10.4346 17.8956 10.8959 17.4088 10.8852 16.8223C10.8852 16.2359 10.4238 15.7601 9.8659 15.7601H9.85517C9.2865 15.7601 8.82513 16.247 8.82513 16.8334ZM13.9646 16.8334C13.9646 17.4198 14.4367 17.8956 15.0054 17.8956C15.574 17.8956 16.0354 17.4198 16.0354 16.8223C16.0354 16.247 15.574 15.7712 15.0054 15.7601H14.9946C14.426 15.7712 13.9646 16.247 13.9646 16.8334ZM20.1449 17.8956C19.5762 17.8956 19.1148 17.4198 19.1148 16.8334C19.1148 16.247 19.5655 15.7712 20.1449 15.7712C20.7135 15.7712 21.1749 16.247 21.1749 16.8334C21.1749 17.4198 20.7135 17.8956 20.1449 17.8956ZM20.1449 22.4322C19.5762 22.4322 19.1148 21.9564 19.1041 21.37C19.1041 20.7836 19.5655 20.3078 20.1341 20.3078H20.1449C20.7135 20.3078 21.1749 20.7836 21.1749 21.37C21.1749 21.9564 20.7135 22.4322 20.1449 22.4322ZM15.0054 22.4322C14.4367 22.4322 13.9646 21.9564 13.9646 21.37C13.9646 20.7836 14.426 20.3078 14.9946 20.2967H15.0054C15.574 20.3078 16.0247 20.7836 16.0354 21.3589C16.0354 21.9564 15.574 22.4322 15.0054 22.4322ZM9.85515 22.4322C9.28648 22.4322 8.82511 21.9564 8.82511 21.37C8.81438 20.7836 9.27575 20.2967 9.85515 20.2967C10.4238 20.2967 10.8852 20.7725 10.8852 21.3589C10.8852 21.9454 10.4238 22.4322 9.85515 22.4322Z" fill="#B5B5B5"/>
</svg>
