<svg width="16" height="16" viewBox="0 0 16 16" fill="none" xmlns="http://www.w3.org/2000/svg">
<path d="M11.5004 11.5003H4.50042C4.36781 11.5003 4.24064 11.4477 4.14687 11.3539C4.0531 11.2601 4.00042 11.133 4.00042 11.0003C4.00042 10.8677 4.0531 10.7406 4.14687 10.6468C4.24064 10.553 4.36781 10.5003 4.50042 10.5003H11.5004C11.633 10.5003 11.7602 10.553 11.854 10.6468C11.9477 10.7406 12.0004 10.8677 12.0004 11.0003C12.0004 11.133 11.9477 11.2601 11.854 11.3539C11.7602 11.4477 11.633 11.5003 11.5004 11.5003ZM6.17592 7.66959C6.07492 7.66959 5.97267 7.63909 5.88442 7.57534L2.70842 5.29009C2.65366 5.25235 2.60697 5.20405 2.57111 5.14803C2.53524 5.09202 2.51091 5.02941 2.49954 4.96387C2.48818 4.89833 2.49 4.83119 2.5049 4.76637C2.51981 4.70154 2.5475 4.64035 2.58635 4.58636C2.62521 4.53237 2.67444 4.48668 2.73117 4.45195C2.78791 4.41723 2.851 4.39418 2.91675 4.38414C2.9825 4.37411 3.0496 4.37729 3.1141 4.39351C3.17861 4.40973 3.23923 4.43865 3.29242 4.47859L6.46842 6.76384C6.55428 6.82567 6.61831 6.91313 6.65131 7.01365C6.6843 7.11417 6.68456 7.22257 6.65205 7.32325C6.61954 7.42393 6.55593 7.5117 6.47037 7.57393C6.38481 7.63617 6.28172 7.66966 6.17592 7.66959ZM9.82492 7.66959C9.71912 7.66966 9.61603 7.63617 9.53047 7.57393C9.44492 7.5117 9.38131 7.42393 9.34879 7.32325C9.31628 7.22257 9.31654 7.11417 9.34954 7.01365C9.38254 6.91313 9.44657 6.82567 9.53242 6.76384L12.7084 4.47859C12.8162 4.40433 12.9487 4.37526 13.0776 4.39763C13.2066 4.41999 13.3216 4.492 13.398 4.59821C13.4745 4.70442 13.5062 4.83636 13.4865 4.96571C13.4667 5.09506 13.3971 5.21152 13.2924 5.29009L10.1164 7.57534C10.0316 7.63667 9.92959 7.66966 9.82492 7.66959Z" fill="white"/>
<path d="M6.17587 7.66961C6.09275 7.66971 6.01091 7.64906 5.93779 7.60954C5.86466 7.57002 5.80256 7.51287 5.7571 7.44328C5.71164 7.37369 5.68427 7.29386 5.67746 7.21101C5.67065 7.12817 5.68463 7.04494 5.71812 6.96886L7.54212 2.79961C7.5684 2.73943 7.60629 2.68501 7.65362 2.63949C7.70096 2.59396 7.7568 2.55822 7.81797 2.5343C7.87913 2.51039 7.94441 2.49876 8.01007 2.5001C8.07573 2.50144 8.14048 2.51572 8.20062 2.54211C8.2608 2.56839 8.31522 2.60628 8.36074 2.65362C8.40627 2.70095 8.44201 2.7568 8.46593 2.81796C8.48984 2.87913 8.50147 2.9444 8.50013 3.01006C8.49879 3.07572 8.48451 3.14048 8.45812 3.20061L6.63412 7.36986C6.59517 7.45898 6.53107 7.5348 6.44967 7.58804C6.36828 7.64129 6.27313 7.66963 6.17587 7.66961Z" fill="white"/>
<path d="M9.82512 7.66939C9.72786 7.66941 9.63271 7.64107 9.55132 7.58783C9.46992 7.53459 9.40583 7.45876 9.36687 7.36964L7.54287 3.20039C7.49155 3.07924 7.49006 2.94275 7.53871 2.8205C7.58735 2.69825 7.68223 2.6001 7.80276 2.54734C7.92329 2.49457 8.05976 2.49144 8.18258 2.53863C8.3054 2.58581 8.40467 2.6795 8.45887 2.79939L10.2829 6.96864C10.3162 7.04473 10.3301 7.12793 10.3232 7.21072C10.3164 7.29351 10.289 7.37329 10.2435 7.44284C10.1981 7.51239 10.1361 7.56952 10.063 7.60908C9.98996 7.64863 9.9082 7.66936 9.82512 7.66939ZM4.50037 11.4999C4.27562 11.4999 4.07112 11.3474 4.01537 11.1191L2.51537 5.00314C2.49973 4.93937 2.4968 4.87314 2.50675 4.80824C2.5167 4.74333 2.53934 4.68102 2.57338 4.62486C2.60741 4.56871 2.65217 4.5198 2.7051 4.48095C2.75803 4.44209 2.8181 4.41404 2.88187 4.39839C3.01067 4.3668 3.14674 4.38766 3.26015 4.4564C3.37357 4.52513 3.45503 4.6361 3.48662 4.76489L4.98662 10.8809C5.00467 10.9546 5.00573 11.0314 4.98972 11.1055C4.9737 11.1796 4.94103 11.2491 4.89418 11.3088C4.84734 11.3684 4.78753 11.4166 4.71931 11.4497C4.65108 11.4828 4.57621 11.5 4.50037 11.4999ZM11.5014 11.4999C11.4255 11.5 11.3506 11.4828 11.2824 11.4497C11.2141 11.4166 11.1543 11.3684 11.1074 11.3087C11.0606 11.249 11.0279 11.1795 11.0119 11.1053C10.9959 11.0311 10.997 10.9543 11.0151 10.8806L12.5151 4.76464C12.5467 4.63585 12.6282 4.52488 12.7416 4.45615C12.855 4.38741 12.9911 4.36655 13.1199 4.39814C13.2487 4.42974 13.3596 4.5112 13.4284 4.62461C13.4971 4.73803 13.518 4.8741 13.4864 5.00289L11.9864 11.1189C11.9598 11.2275 11.8975 11.324 11.8096 11.3931C11.7217 11.4621 11.6132 11.4998 11.5014 11.4999ZM11.5009 13.4999H4.50087C4.36827 13.4999 4.24109 13.4472 4.14732 13.3534C4.05355 13.2597 4.00087 13.1325 4.00087 12.9999C4.00087 12.8673 4.05355 12.7401 4.14732 12.6463C4.24109 12.5526 4.36827 12.4999 4.50087 12.4999H11.5009C11.6335 12.4999 11.7607 12.5526 11.8544 12.6463C11.9482 12.7401 12.0009 12.8673 12.0009 12.9999C12.0009 13.1325 11.9482 13.2597 11.8544 13.3534C11.7607 13.4472 11.6335 13.4999 11.5009 13.4999Z" fill="white"/>
</svg>
