<svg width="18" height="18" viewBox="0 0 18 18" fill="none" xmlns="http://www.w3.org/2000/svg">
<path d="M16.8759 9.17493C16.8759 8.52743 16.8223 8.05493 16.7063 7.56494H9.16162V10.4874H13.5902C13.5009 11.2137 13.0188 12.3074 11.9473 13.0424L11.9323 13.1402L14.3178 14.9513L14.483 14.9674C16.0009 13.5937 16.8759 11.5724 16.8759 9.17493Z" fill="#4285F4"/>
<path d="M9.16098 16.8749C11.3306 16.8749 13.152 16.1749 14.4824 14.9674L11.9467 13.0424C11.2681 13.5061 10.3574 13.8299 9.16098 13.8299C7.03601 13.8299 5.23246 12.4561 4.58954 10.5574L4.4953 10.5652L2.01486 12.4465L1.98242 12.5349C3.30383 15.1074 6.01811 16.8749 9.16098 16.8749Z" fill="#34A853"/>
<path d="M4.58998 10.5576C4.42034 10.0676 4.32216 9.54257 4.32216 9.0001C4.32216 8.45756 4.42034 7.93258 4.58106 7.44259L4.57656 7.33823L2.06503 5.42676L1.98285 5.46506C1.43824 6.53258 1.12573 7.73135 1.12573 9.0001C1.12573 10.2688 1.43824 11.4676 1.98285 12.5351L4.58998 10.5576Z" fill="#FBBC05"/>
<path d="M9.16103 4.16998C10.6699 4.16998 11.6878 4.80873 12.2682 5.34251L14.536 3.1725C13.1432 1.90375 11.3306 1.125 9.16103 1.125C6.01814 1.125 3.30384 2.89249 1.98242 5.46497L4.58063 7.44249C5.23248 5.54375 7.03604 4.16998 9.16103 4.16998Z" fill="#EB4335"/>
</svg>
