<svg width="25" height="24" viewBox="0 0 25 24" fill="none" xmlns="http://www.w3.org/2000/svg">
<path d="M12.5001 1.75C13.2873 1.75 13.9814 2.01975 14.712 2.45996C15.418 2.88535 16.2235 3.51175 17.2266 4.29199L17.2579 4.31641L19.2579 5.87207L20.13 6.55566C20.9228 7.19264 21.4799 7.72021 21.8175 8.41016L21.8966 8.58496C22.2654 9.46446 22.2501 10.4822 22.2501 11.9893V14.5576C22.2501 16.1592 22.2501 17.4378 22.1153 18.4404C21.9847 19.4121 21.7166 20.223 21.127 20.877L21.005 21.0049C20.3298 21.68 19.4767 21.9759 18.4405 22.1152C17.4379 22.25 16.1592 22.25 14.5577 22.25H10.4425C8.84088 22.25 7.5623 22.25 6.55966 22.1152C5.58799 21.9846 4.77704 21.7165 4.12313 21.127L3.99521 21.0049C3.3201 20.3298 3.02417 19.4767 2.88485 18.4404C2.78254 17.6794 2.75799 16.7596 2.75204 15.6602L2.75009 14.5V11.9893C2.75009 10.3817 2.7327 9.33028 3.18271 8.41016C3.63281 7.49024 4.47344 6.85894 5.74228 5.87207L7.74228 4.31641L8.46884 3.75293C9.16085 3.22012 9.75313 2.78235 10.2882 2.45996C11.0188 2.01974 11.7129 1.75002 12.5001 1.75ZM16.2891 16.3857C15.9711 15.9773 15.3991 15.883 14.9698 16.1523L14.8858 16.2109C14.2651 16.694 13.4317 17 12.5001 17C11.6848 16.9999 10.9446 16.7661 10.3565 16.3838L10.1143 16.2109L10.0304 16.1523C9.60102 15.8832 9.02903 15.9772 8.71103 16.3857C8.39306 16.7944 8.44201 17.3726 8.80868 17.7227L8.88583 17.7891L9.07235 17.9277C10.0227 18.6047 11.2168 18.9999 12.5001 19C13.8687 19 15.1361 18.5505 16.1143 17.7891L16.1915 17.7227C16.5583 17.3725 16.6073 16.7945 16.2891 16.3857Z" fill="#E20101"/>
</svg>
