<svg width="12" height="12" viewBox="0 0 12 12" fill="none" xmlns="http://www.w3.org/2000/svg">
<g clip-path="url(#clip0_432_1513)">
<path d="M10.869 1.13102C9.36094 -0.377019 6.90717 -0.376995 5.39913 1.13102C4.36915 2.16101 4.01149 3.67926 4.4573 5.0564L0.103008 9.41072C0.0703515 9.44336 0.0444465 9.48212 0.0267722 9.52478C0.00909788 9.56744 6.25516e-07 9.61317 0 9.65934L0 11.6484C0 11.8426 0.15743 12 0.351609 12H2.34066C2.43394 12 2.52333 11.9629 2.5893 11.897L3.08665 11.3996C3.12415 11.3621 3.15268 11.3166 3.1701 11.2666C3.18753 11.2165 3.19339 11.1631 3.18727 11.1104L3.1252 10.5764L3.86545 10.5067C3.94694 10.499 4.0232 10.4631 4.08108 10.4052C4.13895 10.3474 4.17483 10.2711 4.18252 10.1896L4.25234 9.44927L4.78636 9.51133C4.83563 9.51706 4.88555 9.5123 4.93285 9.49736C4.98015 9.48242 5.02375 9.45765 5.0608 9.42466C5.09784 9.39167 5.12749 9.35122 5.14779 9.30597C5.16809 9.26071 5.17858 9.21167 5.17859 9.16207V8.50727H5.82148C5.91403 8.50727 6.00284 8.47078 6.06867 8.40572L6.94223 7.54223C8.3197 7.98874 9.83871 7.63115 10.869 6.60084C12.377 5.09283 12.377 2.63904 10.869 1.13102ZM10.3717 6.10361C9.48424 6.99108 8.15299 7.26808 6.98025 6.80941C6.91692 6.78464 6.84776 6.77877 6.78115 6.7925C6.71455 6.80624 6.65336 6.83899 6.60499 6.8868L5.67703 7.80405H4.82695C4.63277 7.80405 4.47534 7.96148 4.47534 8.15566V8.76722L3.97659 8.70926C3.93009 8.70385 3.88298 8.70779 3.83801 8.72084C3.79305 8.73388 3.75115 8.75578 3.71476 8.78523C3.67837 8.81469 3.64823 8.85111 3.62611 8.89237C3.60398 8.93363 3.59032 8.97889 3.58591 9.0255L3.50967 9.83383L2.70141 9.91001C2.65479 9.9144 2.60953 9.92806 2.56826 9.95018C2.527 9.97231 2.49057 10.0024 2.46111 10.0388C2.43165 10.0752 2.40975 10.1171 2.3967 10.1621C2.38365 10.2071 2.37971 10.2542 2.38512 10.3007L2.46907 11.0227L2.19499 11.2968H0.703195V9.80503L5.11172 5.39651C5.16006 5.34817 5.19326 5.2868 5.20726 5.2199C5.22126 5.15299 5.21546 5.08345 5.19056 5.01979C4.73184 3.84703 5.0089 2.51583 5.89636 1.62832C7.13025 0.394474 9.13786 0.394474 10.3717 1.62832C11.6055 2.86214 11.6055 4.86977 10.3717 6.10361Z" fill="white"/>
<path d="M9.87445 2.12585C9.46317 1.71455 8.79394 1.71457 8.38268 2.12585C7.9714 2.53713 7.9714 3.20634 8.38268 3.61763C8.79394 4.02891 9.46317 4.02895 9.87445 3.61763C10.2857 3.20634 10.2857 2.53713 9.87445 2.12585ZM9.3772 3.12038C9.24012 3.25746 9.01706 3.25749 8.87995 3.12038C8.74287 2.98329 8.74287 2.76024 8.87995 2.62313C9.01741 2.48569 9.23977 2.48569 9.3772 2.62313C9.51464 2.76056 9.51462 2.98294 9.3772 3.12038Z" fill="white"/>
</g>
<defs>
<clipPath id="clip0_432_1513">
<rect width="12" height="12" fill="white"/>
</clipPath>
</defs>
</svg>
