<svg width="12" height="12" viewBox="0 0 12 12" fill="none" xmlns="http://www.w3.org/2000/svg">
<path d="M3.5 9C2.58553 9.20585 2 9.52215 2 9.87685C2 10.4972 3.79086 11 6 11C8.20915 11 10 10.4972 10 9.87685C10 9.52215 9.41445 9.20585 8.5 9" stroke="#B5B5B5" stroke-width="0.8" stroke-linecap="round"/>
<path d="M7.25 4.5C7.25 5.19035 6.69035 5.75 6 5.75C5.30965 5.75 4.75 5.19035 4.75 4.5C4.75 3.80964 5.30965 3.25 6 3.25C6.69035 3.25 7.25 3.80964 7.25 4.5Z" stroke="#B5B5B5" stroke-width="0.8"/>
<path d="M6.6287 8.7468C6.46005 8.9092 6.23465 9 6.0001 9C5.7655 9 5.5401 8.9092 5.37145 8.7468C3.82715 7.2504 1.75759 5.57875 2.76685 3.15187C3.31255 1.83966 4.62247 1 6.0001 1C7.3777 1 8.6876 1.83967 9.2333 3.15187C10.2413 5.5757 8.1768 7.25555 6.6287 8.7468Z" stroke="#B5B5B5" stroke-width="0.8"/>
</svg>
