<svg width="16" height="16" viewBox="0 0 16 16" fill="none" xmlns="http://www.w3.org/2000/svg">
<g clip-path="url(#clip0_1195_3768)">
<path d="M10.0146 7.04228C10.0146 6.92294 9.96716 6.80848 9.88277 6.72409C9.79838 6.6397 9.68392 6.59229 9.56457 6.59229H4.61457C4.49523 6.59229 4.38077 6.6397 4.29638 6.72409C4.21198 6.80848 4.16457 6.92294 4.16457 7.04228C4.16457 7.16163 4.21198 7.27609 4.29638 7.36048C4.38077 7.44487 4.49523 7.49229 4.61457 7.49229H9.56457C9.62367 7.49229 9.68219 7.48065 9.73678 7.45803C9.79138 7.43542 9.84099 7.40227 9.88277 7.36048C9.92456 7.3187 9.95771 7.26909 9.98032 7.21449C10.0029 7.1599 10.0146 7.10138 10.0146 7.04228ZM4.61357 8.86479C4.49423 8.86479 4.37977 8.9122 4.29538 8.99659C4.21098 9.08098 4.16357 9.19544 4.16357 9.31479C4.16357 9.43413 4.21098 9.54859 4.29538 9.63298C4.37977 9.71737 4.49423 9.76478 4.61357 9.76478H7.23807C7.35742 9.76478 7.47188 9.71737 7.55627 9.63298C7.64066 9.54859 7.68807 9.43413 7.68807 9.31479C7.68807 9.19544 7.64066 9.08098 7.55627 8.99659C7.47188 8.9122 7.35742 8.86479 7.23807 8.86479H4.61357Z" fill="white"/>
<path d="M12.9798 7.06737C12.8605 7.06737 12.746 7.11478 12.6616 7.19917C12.5772 7.28356 12.5298 7.39802 12.5298 7.51737V11.1569C12.5294 11.4843 12.3992 11.7982 12.1676 12.0297C11.9361 12.2612 11.6222 12.3915 11.2948 12.3919H8.2848C8.18719 12.3918 8.0922 12.4235 8.0143 12.4824L5.4153 14.4369C5.39311 14.4547 5.36604 14.4654 5.33766 14.4675C5.30928 14.4696 5.28092 14.4632 5.2563 14.4489C5.23086 14.4367 5.20956 14.4173 5.19507 14.3931C5.18057 14.369 5.17352 14.341 5.1748 14.3129L5.2248 12.8579C5.22674 12.7976 5.21656 12.7375 5.19486 12.6812C5.17316 12.6249 5.14038 12.5735 5.09847 12.5301C5.05656 12.4867 5.00636 12.4521 4.95085 12.4285C4.89534 12.4048 4.83564 12.3925 4.7753 12.3924H2.6848C2.35734 12.3921 2.04337 12.2619 1.81182 12.0304C1.58027 11.7988 1.45007 11.4848 1.4498 11.1574V5.20737C1.44954 4.87933 1.57943 4.56459 1.81096 4.33221C2.0425 4.09983 2.35677 3.9688 2.6848 3.96787H8.2298C8.34915 3.96787 8.46361 3.92046 8.548 3.83607C8.63239 3.75168 8.6798 3.63722 8.6798 3.51787C8.6798 3.39852 8.63239 3.28406 8.548 3.19967C8.46361 3.11528 8.34915 3.06787 8.2298 3.06787H2.6848C2.11811 3.0692 1.57507 3.29524 1.17483 3.69643C0.77458 4.09761 0.549803 4.64117 0.549805 5.20787V11.1574C0.550466 11.7235 0.775599 12.2662 1.17583 12.6665C1.57606 13.0668 2.11872 13.2921 2.6848 13.2929H4.3093L4.2753 14.2839C4.26841 14.4818 4.31797 14.6776 4.41819 14.8483C4.51842 15.0191 4.66517 15.1579 4.8413 15.2484C4.99126 15.327 5.158 15.3681 5.3273 15.3684C5.5488 15.3684 5.7683 15.2969 5.9553 15.1574L8.4348 13.2929H11.2943C11.8604 13.2921 12.403 13.0668 12.8033 12.6665C13.2035 12.2662 13.4286 11.7235 13.4293 11.1574V7.51787C13.4294 7.45876 13.4179 7.4002 13.3954 7.34555C13.3728 7.2909 13.3398 7.24123 13.298 7.19938C13.2563 7.15753 13.2067 7.12433 13.1521 7.10168C13.0975 7.07903 13.0389 7.06737 12.9798 7.06737Z" fill="white"/>
<path d="M15.4124 2.78067C15.3731 2.65844 15.3032 2.54831 15.2092 2.46079C15.1153 2.37326 15.0006 2.31125 14.8759 2.28067L13.7259 1.99417L13.0979 0.989172C12.8194 0.542172 12.0924 0.543172 11.8144 0.989172L11.1864 1.99417L10.0364 2.28067C9.78187 2.34367 9.58087 2.53067 9.49987 2.78067C9.41887 3.03067 9.47087 3.30017 9.63987 3.50167L10.4019 4.40867L10.3189 5.59067C10.3094 5.71876 10.333 5.84713 10.3873 5.96354C10.4415 6.07996 10.5247 6.18053 10.6289 6.25567C10.7326 6.33145 10.854 6.37946 10.9815 6.39512C11.109 6.41079 11.2384 6.39359 11.3574 6.34517L12.4564 5.90117L13.5549 6.34517C13.7984 6.44417 14.0704 6.41017 14.2834 6.25617C14.4959 6.10167 14.6119 5.85317 14.5939 5.59067L14.5109 4.40867L15.2729 3.50117C15.4414 3.30017 15.4939 3.03067 15.4124 2.78067ZM13.7044 3.96917C13.6292 4.05873 13.5919 4.17406 13.6004 4.29067L13.6804 5.42567L12.6254 4.99917C12.5173 4.95526 12.3964 4.95526 12.2884 4.99917L11.2339 5.42567L11.3134 4.29067C11.3213 4.17413 11.284 4.05902 11.2094 3.96917L10.4779 3.09817L11.5819 2.82267C11.6949 2.79444 11.7926 2.72346 11.8544 2.62467L12.4574 1.66017L13.0604 2.62467C13.1224 2.72367 13.2199 2.79467 13.3329 2.82267L14.4369 3.09817L13.7044 3.96917Z" fill="white"/>
</g>
<defs>
<clipPath id="clip0_1195_3768">
<rect width="16" height="16" fill="white"/>
</clipPath>
</defs>
</svg>
