<svg width="16" height="16" viewBox="0 0 16 16" fill="none" xmlns="http://www.w3.org/2000/svg">
<path d="M13.3146 3.87859L12.8536 4.07199L13.3146 3.87859ZM12.9048 4.19405C13.0116 4.4487 13.3046 4.56855 13.5592 4.46173C13.8139 4.35492 13.9337 4.06189 13.8269 3.80725L12.9048 4.19405ZM11.1858 1.20308C10.9294 1.10052 10.6384 1.22523 10.5358 1.48162C10.4333 1.73801 10.558 2.029 10.8144 2.13156L11.1858 1.20308ZM11.1116 1.71191L10.9259 2.17615L10.9259 2.17615L11.1116 1.71191ZM2.71795 3.87859L3.17903 4.07199L2.71795 3.87859ZM2.20567 3.80725C2.09885 4.06189 2.2187 4.35492 2.47334 4.46173C2.72799 4.56855 3.02101 4.4487 3.12783 4.19405L2.20567 3.80725ZM5.21821 2.13156C5.4746 2.029 5.59931 1.73801 5.49675 1.48162C5.39419 1.22523 5.10321 1.10052 4.84682 1.20308L5.21821 2.13156ZM4.92103 1.71191L4.73533 1.24767V1.24767L4.92103 1.71191ZM12.1598 5.98411L11.663 6.04049L12.1598 5.98411ZM12.4579 8.61082L12.9547 8.55444L12.4579 8.61082ZM3.54227 8.61082L3.04546 8.55444L3.54227 8.61082ZM3.84039 5.98411L4.3372 6.0405L3.84039 5.98411ZM2.96527 9.9154L2.58453 9.5913H2.58453L2.96527 9.9154ZM13.0349 9.9154L12.6542 10.2395L13.0349 9.9154ZM9.51338 2.91643H9.01338C9.01338 3.13015 9.14922 3.32024 9.35142 3.38947L9.51338 2.91643ZM6.48678 2.91643L6.64875 3.38947C6.85094 3.32024 6.98678 3.13015 6.98678 2.91643H6.48678ZM10.4683 13.5095C10.5652 13.2509 10.4341 12.9627 10.1756 12.8658C9.91697 12.7689 9.62879 12.8999 9.53188 13.1585L10.4683 13.5095ZM6.46828 13.1585C6.37137 12.8999 6.08319 12.7689 5.82461 12.8658C5.56603 12.9627 5.43497 13.2509 5.53188 13.5095L6.46828 13.1585ZM13.3146 3.87859L12.8536 4.07199L12.9048 4.19405L13.3658 4.00065L13.8269 3.80725L13.7757 3.68518L13.3146 3.87859ZM11.0001 1.66732L10.8144 2.13156L10.9259 2.17615L11.1116 1.71191L11.2973 1.24767L11.1858 1.20308L11.0001 1.66732ZM13.3146 3.87859L13.7757 3.68518C13.3094 2.5735 12.4166 1.69539 11.2973 1.24767L11.1116 1.71191L10.9259 2.17615C11.7964 2.52438 12.4909 3.20735 12.8536 4.07199L13.3146 3.87859ZM2.71795 3.87859L2.25687 3.68518L2.20567 3.80725L2.66675 4.00065L3.12783 4.19405L3.17903 4.07199L2.71795 3.87859ZM5.03251 1.66732L4.84682 1.20308L4.73533 1.24767L4.92103 1.71191L5.10672 2.17615L5.21821 2.13156L5.03251 1.66732ZM2.71795 3.87859L3.17903 4.07199C3.54171 3.20735 4.23616 2.52438 5.10672 2.17615L4.92103 1.71191L4.73533 1.24767C3.61603 1.69539 2.72317 2.5735 2.25687 3.68518L2.71795 3.87859ZM11.8515 12.0007V11.5007H4.14862V12.0007V12.5007H11.8515V12.0007ZM12.1598 5.98411L11.663 6.04049L11.9611 8.66721L12.4579 8.61082L12.9547 8.55444L12.6566 5.92772L12.1598 5.98411ZM3.54227 8.61082L4.03908 8.66721L4.3372 6.0405L3.84039 5.98411L3.34358 5.92772L3.04546 8.55444L3.54227 8.61082ZM2.96527 9.9154L3.34601 10.2395C3.73089 9.78735 3.9736 9.24409 4.03908 8.66721L3.54227 8.61082L3.04546 8.55444C3.00354 8.92373 2.8472 9.28273 2.58453 9.5913L2.96527 9.9154ZM12.4579 8.61082L11.9611 8.66721C12.0266 9.24409 12.2693 9.78735 12.6542 10.2395L13.0349 9.9154L13.4156 9.5913C13.153 9.28273 12.9966 8.92373 12.9547 8.55444L12.4579 8.61082ZM4.14862 12.0007V11.5007C3.71193 11.5007 3.40303 11.2847 3.26045 11.0334C3.12281 10.7909 3.12484 10.4993 3.34601 10.2395L2.96527 9.9154L2.58453 9.5913C2.07435 10.1906 2.0586 10.9417 2.39074 11.527C2.71794 12.1036 3.3664 12.5007 4.14862 12.5007V12.0007ZM11.8515 12.0007V12.5007C12.6338 12.5007 13.2822 12.1036 13.6094 11.527C13.9416 10.9417 13.9258 10.1906 13.4156 9.5913L13.0349 9.9154L12.6542 10.2395C12.8753 10.4993 12.8774 10.7909 12.7397 11.0334C12.5971 11.2847 12.2882 11.5007 11.8515 11.5007V12.0007ZM9.51338 2.91643H10.0134V2.84728H9.51338H9.01338V2.91643H9.51338ZM12.1598 5.98411L12.6566 5.92772C12.4704 4.28749 11.2538 2.98382 9.67534 2.44338L9.51338 2.91643L9.35142 3.38947C10.6295 3.82707 11.5276 4.84799 11.663 6.04049L12.1598 5.98411ZM6.48678 2.91643H6.98678V2.84728H6.48678H5.98678V2.91643H6.48678ZM3.84039 5.98411L4.3372 6.0405C4.47255 4.84799 5.37066 3.82707 6.64875 3.38947L6.48678 2.91643L6.32482 2.44338C4.74638 2.98382 3.52974 4.28749 3.34358 5.92772L3.84039 5.98411ZM8.00008 1.33398V1.83398C8.55971 1.83398 9.01338 2.28765 9.01338 2.84728H9.51338H10.0134C10.0134 1.73537 9.112 0.833984 8.00008 0.833984V1.33398ZM8.00008 1.33398V0.833984C6.88817 0.833984 5.98678 1.73537 5.98678 2.84728H6.48678H6.98678C6.98678 2.28765 7.44045 1.83398 8.00008 1.83398V1.33398ZM10.0001 13.334L9.53188 13.1585C9.31674 13.7326 8.72314 14.1673 8.00008 14.1673V14.6673V15.1673C9.12373 15.1673 10.1012 14.489 10.4683 13.5095L10.0001 13.334ZM8.00008 14.6673V14.1673C7.27703 14.1673 6.68342 13.7326 6.46828 13.1585L6.00008 13.334L5.53188 13.5095C5.89898 14.489 6.87643 15.1673 8.00008 15.1673V14.6673Z" fill="white"/>
</svg>
