<svg width="16" height="16" viewBox="0 0 16 16" fill="none" xmlns="http://www.w3.org/2000/svg">
<path d="M5.66675 7.66732L7.33341 9.33398L10.6667 5.33398" stroke="white" stroke-linecap="round" stroke-linejoin="round"/>
<path d="M14 7.36805V4.08282C14 3.56615 13.6097 3.13733 13.1034 3.04933C11.0633 2.6947 9.36973 1.9058 8.54347 1.46834C8.20513 1.2892 7.79487 1.2892 7.45653 1.46834C6.63028 1.9058 4.93668 2.6947 2.89659 3.04933C2.39035 3.13733 2 3.56615 2 4.08282V7.36805C2 11.6537 6.35841 13.9913 7.64593 14.5883C7.87313 14.6937 8.12687 14.6937 8.35407 14.5883C9.6416 13.9913 14 11.6537 14 7.36805Z" stroke="white" stroke-linecap="round"/>
</svg>
