<svg width="24" height="24" viewBox="0 0 24 24" fill="none" xmlns="http://www.w3.org/2000/svg">
<g clip-path="url(#clip0_3002_167)">
<path d="M17.3734 5.46171C17.7195 5.1153 18.281 5.1153 18.6272 5.46171C19.9123 6.74683 20.5439 8.53708 20.3604 10.3737C20.3146 10.8313 19.9291 11.1723 19.479 11.1723C19.4494 11.1723 19.4196 11.1708 19.39 11.1679C18.9026 11.1191 18.5471 10.6843 18.5958 10.1973C18.7264 8.89202 18.2807 7.62288 17.3734 6.71547C17.0269 6.3694 17.0269 5.80779 17.3734 5.46171Z" fill="#E8E8E8"/>
<path d="M13.8621 0C19.4521 0 24 4.54786 24 10.1379C24 15.728 19.4521 20.2759 13.8621 20.2759C8.27198 20.2759 3.72412 15.728 3.72412 10.1379C3.72412 4.54786 8.27203 0 13.8621 0ZM13.8621 18.5025C18.4744 18.5025 22.2266 14.7502 22.2266 10.1379C22.2266 5.52562 18.4744 1.77342 13.8621 1.77342C9.25003 1.77342 5.49755 5.52562 5.49755 10.1379C5.49755 14.7502 9.24975 18.5025 13.8621 18.5025Z" fill="#E8E8E8"/>
<path d="M0.259789 22.4863L6.70318 16.043C7.04959 15.6966 7.61059 15.6966 7.95699 16.043C8.3034 16.3891 8.3034 16.9507 7.95699 17.2968L1.5136 23.7402C1.43139 23.8226 1.33367 23.8881 1.22609 23.9326C1.1185 23.9772 1.00315 24.0001 0.886695 23.9999C0.659679 23.9999 0.432992 23.9134 0.259789 23.7402C-0.0865698 23.394 -0.0865698 22.8325 0.259789 22.4863Z" fill="#E8E8E8"/>
</g>
<defs>
<clipPath id="clip0_3002_167">
<rect width="24" height="24" fill="white" transform="matrix(-1 0 0 1 24 0)"/>
</clipPath>
</defs>
</svg>
