<svg width="16" height="16" viewBox="0 0 16 16" fill="none" xmlns="http://www.w3.org/2000/svg">
<g clip-path="url(#clip0_430_1949)">
<path d="M9.98706 4.67773C9.98706 4.67773 10.3204 5.01107 10.6537 5.67773C10.6537 5.67773 11.7125 4.01107 12.6537 3.67773" stroke="white" stroke-linecap="round" stroke-linejoin="round"/>
<path d="M6.66315 1.3476C4.99751 1.27708 3.71067 1.46896 3.71067 1.46896C2.8981 1.52706 1.34089 1.98261 1.34091 4.64307C1.34092 7.28091 1.32368 10.5329 1.34091 11.8293C1.34091 12.6214 1.83132 14.4689 3.52876 14.5679C5.59199 14.6883 9.30841 14.7139 11.0135 14.5679C11.47 14.5422 12.9897 14.1838 13.182 12.5304C13.3813 10.8176 13.3416 9.62718 13.3416 9.34384" stroke="white" stroke-linecap="round" stroke-linejoin="round"/>
<path d="M14.6667 4.67708C14.6667 6.51803 13.1729 8.01044 11.3302 8.01044C9.48745 8.01044 7.99365 6.51803 7.99365 4.67708C7.99365 2.83614 9.48745 1.34375 11.3302 1.34375C13.1729 1.34375 14.6667 2.83614 14.6667 4.67708Z" stroke="white" stroke-linecap="round"/>
<path d="M4.65356 8.67773H7.32021" stroke="white" stroke-linecap="round"/>
<path d="M4.65381 11.3438H9.98712" stroke="white" stroke-linecap="round"/>
</g>
<defs>
<clipPath id="clip0_430_1949">
<rect width="16" height="16" fill="white"/>
</clipPath>
</defs>
</svg>
