<svg width="16" height="16" viewBox="0 0 16 16" fill="none" xmlns="http://www.w3.org/2000/svg">
<path fill-rule="evenodd" clip-rule="evenodd" d="M4.92369 10.4646C4.13235 10.8603 3.83325 11.3144 3.83325 11.6673C3.83325 12.0202 4.13235 12.4743 4.92369 12.87C5.68514 13.2507 6.77205 13.5007 7.99992 13.5007C9.22779 13.5007 10.3147 13.2507 11.0761 12.87C11.8675 12.4743 12.1666 12.0202 12.1666 11.6673C12.1666 11.3144 11.8675 10.8603 11.0761 10.4646C10.3147 10.0839 9.22779 9.83398 7.99992 9.83398C6.77205 9.83398 5.68514 10.0839 4.92369 10.4646ZM4.47648 9.57019C5.40404 9.10641 6.65046 8.83398 7.99992 8.83398C9.34937 8.83398 10.5958 9.10641 11.5234 9.57019C12.421 10.019 13.1666 10.7316 13.1666 11.6673C13.1666 12.6031 12.421 13.3156 11.5234 13.7644C10.5958 14.2282 9.34937 14.5007 7.99992 14.5007C6.65046 14.5007 5.40404 14.2282 4.47648 13.7644C3.57883 13.3156 2.83325 12.6031 2.83325 11.6673C2.83325 10.7316 3.57883 10.019 4.47648 9.57019Z" fill="white"/>
<path fill-rule="evenodd" clip-rule="evenodd" d="M7.99992 2.5C6.8033 2.5 5.83325 3.47005 5.83325 4.66667C5.83325 5.86328 6.8033 6.83333 7.99992 6.83333C9.19654 6.83333 10.1666 5.86328 10.1666 4.66667C10.1666 3.47005 9.19654 2.5 7.99992 2.5ZM4.83325 4.66667C4.83325 2.91776 6.25102 1.5 7.99992 1.5C9.74882 1.5 11.1666 2.91776 11.1666 4.66667C11.1666 6.41557 9.74882 7.83333 7.99992 7.83333C6.25102 7.83333 4.83325 6.41557 4.83325 4.66667Z" fill="white"/>
</svg>
